<svg width="400" height="400" viewBox="0 0 400 400" fill="none" xmlns="http://www.w3.org/2000/svg">
  <!-- Wings -->
  <path d="M100 200C60 180 20 220 20 280L80 260C60 280 40 320 100 300L120 240L100 200Z" fill="#333" />
  <path d="M300 200C340 180 380 220 380 280L320 260C340 280 360 320 300 300L280 240L300 200Z" fill="#333" />
  
  <!-- Outer Hexagon -->
  <path d="M200 80L303.923 140V260L200 320L96.0769 260V140L200 80Z" stroke="#F5C64C" stroke-width="8" fill="black" />
  <!-- Inner Hexagon -->
  <path d="M200 100L286.603 150V250L200 300L113.397 250V150L200 100Z" stroke="#F5C64C" stroke-width="4" fill="none" />
  
  <!-- Lightning 'A' -->
  <path d="M200 120L150 220H185L165 280L250 180H215L235 120H200Z" fill="#F5C64C" />
  
  <!-- Circuit accents -->
  <circle cx="200" cy="120" r="3" fill="#F5C64C" />
  <circle cx="165" cy="280" r="3" fill="#F5C64C" />
  <circle cx="250" cy="180" r="3" fill="#F5C64C" />
</svg>
